<?xml version="1.0" encoding="UTF-8"?>
<svg id="_레이어_1" data-name="레이어_1" xmlns="http://www.w3.org/2000/svg" viewBox="0 0 512 512">
  <defs>
    <style>
      .cls-1 {
        stroke-linecap: round;
        stroke-linejoin: round;
      }

      .cls-1, .cls-2 {
        fill: none;
        stroke-width: 32px;
      }

      .cls-1, .cls-2, .cls-3 {
        stroke: #c00;
      }

      .cls-2, .cls-3 {
        stroke-miterlimit: 10;
      }

      .cls-3 {
        fill: #c00;
      }
    </style>
  </defs>
  <path class="cls-2" d="M448,256c0-106-86-192-192-192s-192,86-192,192,86,192,192,192,192-86,192-192Z"/>
  <path class="cls-1" d="M250.26,166.05l5.74,121.95,5.73-121.95c.14-3.17-2.31-5.85-5.47-5.99-.11,0-.21,0-.32,0h0c-3.17.03-5.72,2.62-5.69,5.79,0,.07,0,.14,0,.21Z"/>
  <path class="cls-3" d="M256,367.91c-11.05,0-20-8.95-20-20s8.95-20,20-20,20,8.95,20,20-8.95,20-20,20Z"/>
</svg>