<?xml version="1.0" encoding="UTF-8"?>
<svg id="katman_1" data-name="katman 1" xmlns="http://www.w3.org/2000/svg" viewBox="0 0 600 450">
  <defs>
    <style>
      .cls-1 {
        fill: #010202;
        isolation: isolate;
        opacity: .07;
      }

      .cls-2 {
        fill: #fff;
      }

      .cls-3 {
        fill: #286cb4;
      }
    </style>
  </defs>
  <path class="cls-1" d="M552.72,35.96H47.58C20.7,35.96.15,56.52.15,83.39v284.11c0,26.88,22.13,47.43,47.43,47.43h505.14c26.88,0,47.43-20.55,47.43-47.43V83.24c-.16-26.88-22.29-47.27-47.43-47.27Z"/>
  <path class="cls-3" d="M552.72,51.77c17.39,0,31.62,14.23,31.62,31.62v284.11c0,17.39-14.23,31.62-31.62,31.62H47.58c-17.39,0-31.62-14.23-31.62-31.62V83.24c0-17.39,14.23-31.62,31.62-31.62h505.14"/>
  <path class="cls-2" d="M141.81,198.02l12.17,29.57h-24.35l12.17-29.57ZM395.57,199.28h-46.96v13.12h46.17v19.6h-46.17v14.55h46.96v11.7l32.73-35.42-32.73-37v13.44h0ZM173.59,162.29h63.08l14.07,30.51,12.96-30.67h163.64l17.08,18.81,17.55-18.81h75.1l-55.49,60.87,55.02,60.4h-76.36l-17.08-18.81-17.71,18.81H158.57l-7.75-18.81h-17.87l-7.75,18.81h-61.66l51.86-121.26h54.07l4.11.16ZM310.35,179.36h-35.42l-23.72,55.81-25.61-55.81h-35.1v75.89l-32.57-75.89h-31.46l-37.63,86.96h24.51l7.75-18.81h41.26l7.75,18.81h43v-62.13l27.67,62.13h18.81l27.51-61.98v61.98h23.08l.16-86.96h0ZM457.7,223l40-43.64h-28.77l-25.3,27.19-24.51-27.19h-92.96v87.11h91.7l25.45-27.51,24.51,27.51h29.57l-39.68-43.48h0Z"/>
</svg>