<?xml version="1.0" encoding="UTF-8"?>
<svg id="_레이어_1" data-name=" 레이어 1" xmlns="http://www.w3.org/2000/svg" viewBox="0 0 512 512">
  <defs>
    <style>
      .cls-1 {
        fill: #c4bfb8;
      }
    </style>
  </defs>
  <path class="cls-1" d="M255.88,165.11L38.96,382.03c-4.36,4.12-8.73,6.3-13.57,6.3s-9.45-2.18-13.57-6.3c-4.12-4.12-5.82-8.73-5.82-13.81s2.18-9.45,5.57-12.85l220.79-220.79c3.39-3.39,7.03-6.06,11.15-8,4.12-1.94,8.24-2.91,12.36-2.91,4.85,0,9.21.97,12.85,2.91,3.64,1.94,7.27,4.6,10.66,8l220.31,220.31c4.12,4.36,6.3,8.73,6.3,13.57s-2.18,9.45-6.3,13.57c-3.64,4.12-8,6.3-12.85,6.3s-9.21-1.94-12.85-6.06l-218.13-217.4v.24Z"/>
</svg>