<?xml version="1.0" encoding="UTF-8"?>
<svg id="_레이어_1" xmlns="http://www.w3.org/2000/svg" xmlns:xlink="http://www.w3.org/1999/xlink" viewBox="0 0 512 512">
  <defs>
    <style>
      .cls-1 {
        fill: #566538;
        filter: url(#drop-shadow-1);
      }
    </style>
    <filter id="drop-shadow-1" x="115" y="-2" width="296" height="531" filterUnits="userSpaceOnUse">
      <feOffset dx="7" dy="7"/>
      <feGaussianBlur result="blur" stdDeviation="5"/>
      <feFlood flood-color="#000" flood-opacity=".5"/>
      <feComposite in2="blur" operator="in"/>
      <feComposite in="SourceGraphic"/>
    </filter>
  </defs>
  <path class="cls-1" d="M164.86,255.88l217.4,218.13c4.12,3.64,6.3,7.76,6.06,12.85s-2.18,9.21-6.3,12.85c-4.12,4.12-8.73,6.3-13.57,6.3s-9.21-2.18-13.57-6.3l-220.31-220.31c-3.39-3.39-6.06-7.03-8-10.66-1.94-3.64-2.91-8-2.91-12.85,0-4.12.97-8.24,2.91-12.36s4.6-7.76,8-11.15L355.12,11.57c3.64-3.64,7.76-5.33,12.85-5.57,5.09,0,9.69,1.7,13.81,5.82s6.3,8.73,6.3,13.57-2.18,9.21-6.3,13.57l-216.92,216.92Z"/>
</svg>