<?xml version="1.0" encoding="UTF-8"?>
<svg id="_레이어_1" data-name=" 레이어 1" xmlns="http://www.w3.org/2000/svg" viewBox="0 0 512 512">
  <defs>
    <style>
      .cls-1 {
        fill: #373028;
      }
    </style>
  </defs>
  <path class="cls-1" d="M130.22,38.96c-4.12-4.36-6.3-8.73-6.3-13.57s2.18-9.45,6.3-13.57c4.12-4.12,8.73-5.82,13.81-5.82,5.09.24,9.21,1.94,12.85,5.57l220.55,220.79c3.39,3.39,6.06,7.03,8,11.15,1.94,4.12,2.91,8.24,2.91,12.36,0,4.85-.97,9.21-2.91,12.85-1.94,3.64-4.6,7.27-8,10.66l-220.31,220.31c-4.36,4.12-8.73,6.3-13.57,6.3s-9.45-2.18-13.57-6.3c-4.12-3.64-6.06-7.76-6.3-12.85-.24-5.09,1.94-9.21,6.06-12.85l217.4-218.13L130.22,38.96Z"/>
</svg>