<?xml version="1.0" encoding="UTF-8"?>
<svg id="_레이어_1" xmlns="http://www.w3.org/2000/svg" version="1.1" xmlns:xlink="http://www.w3.org/1999/xlink" viewBox="0 0 512 512">
  <!-- Generator: Adobe Illustrator 29.7.1, SVG Export Plug-In . SVG Version: 2.1.1 Build 8)  -->
  <defs>
    <style>
      .st0 {
        fill: #f5f4ee;
        filter: url(#drop-shadow-1);
      }
    </style>
    <filter id="drop-shadow-1" x="113" y="-4" width="296" height="530" filterUnits="userSpaceOnUse">
      <feOffset dx="5" dy="5"/>
      <feGaussianBlur result="blur" stdDeviation="5"/>
      <feFlood flood-color="#000" flood-opacity=".5"/>
      <feComposite in2="blur" operator="in"/>
      <feComposite in="SourceGraphic"/>
    </filter>
  </defs>
  <path class="st0" d="M130.2,39c-4.1-4.4-6.3-8.7-6.3-13.6s2.2-9.4,6.3-13.6c4.1-4.1,8.7-5.8,13.8-5.8,5.1.2,9.2,1.9,12.9,5.6l220.5,220.8c3.4,3.4,6.1,7,8,11.1s2.9,8.2,2.9,12.4-1,9.2-2.9,12.8c-1.9,3.6-4.6,7.3-8,10.7l-220.3,220.3c-4.4,4.1-8.7,6.3-13.6,6.3s-9.4-2.2-13.6-6.3c-4.1-3.6-6.1-7.8-6.3-12.9-.2-5.1,1.9-9.2,6.1-12.9l217.4-218.1L130.2,39Z"/>
</svg>