<?xml version="1.0" encoding="UTF-8"?>
<svg id="_레이어_1" xmlns="http://www.w3.org/2000/svg" version="1.1" xmlns:xlink="http://www.w3.org/1999/xlink" viewBox="0 0 512 512">
  <!-- Generator: Adobe Illustrator 29.7.1, SVG Export Plug-In . SVG Version: 2.1.1 Build 8)  -->
  <defs>
    <style>
      .st0 {
        fill: #f5f4ee;
        filter: url(#drop-shadow-1);
      }
    </style>
    <filter id="drop-shadow-1" x="113" y="-4" width="296" height="531" filterUnits="userSpaceOnUse">
      <feOffset dx="5" dy="5"/>
      <feGaussianBlur result="blur" stdDeviation="5"/>
      <feFlood flood-color="#000" flood-opacity=".8"/>
      <feComposite in2="blur" operator="in"/>
      <feComposite in="SourceGraphic"/>
    </filter>
  </defs>
  <path class="st0" d="M164.9,255.9l217.4,218.1c4.1,3.6,6.3,7.8,6.1,12.9s-2.2,9.2-6.3,12.9c-4.1,4.1-8.7,6.3-13.6,6.3s-9.2-2.2-13.6-6.3l-220.3-220.3c-3.4-3.4-6.1-7-8-10.7-1.9-3.6-2.9-8-2.9-12.9s1-8.2,2.9-12.4,4.6-7.8,8-11.1L355.1,11.6c3.6-3.6,7.8-5.3,12.9-5.6,5.1,0,9.7,1.7,13.8,5.8s6.3,8.7,6.3,13.6-2.2,9.2-6.3,13.6l-216.9,216.9Z"/>
</svg>