<?xml version="1.0" encoding="UTF-8"?>
<svg id="_레이어_1" data-name=" 레이어 1" xmlns="http://www.w3.org/2000/svg" viewBox="0 0 512 512">
  <defs>
    <style>
      .cls-1 {
        fill: #4a433e;
      }
    </style>
  </defs>
  <path class="cls-1" d="M255.88,347.13l218.13-217.4c3.64-4.12,8-6.06,12.85-6.06s9.21,2.18,12.85,6.3c4.12,4.12,6.3,8.73,6.3,13.57s-2.18,9.21-6.3,13.57l-220.31,220.31c-3.39,3.39-7.03,6.06-10.66,8-3.64,1.94-8,2.91-12.85,2.91-4.12,0-8.24-.97-12.36-2.91-4.12-1.94-7.76-4.6-11.15-8L11.57,156.63c-3.39-3.39-5.57-7.76-5.57-12.85s1.7-9.69,5.82-13.81c4.12-4.12,8.73-6.3,13.57-6.3s9.21,2.18,13.57,6.3l216.92,216.92v.24Z"/>
</svg>