<?xml version="1.0" encoding="UTF-8"?>
<svg id="_레이어_1" data-name=" 레이어 1" xmlns="http://www.w3.org/2000/svg" viewBox="0 0 512 512">
  <defs>
    <style>
      .cls-1 {
        fill: #f5f4ee;
      }
    </style>
  </defs>
  <path id="_패스_20" data-name=" 패스 20" class="cls-1" d="M373.6,34.91c-36,0-69.6,15.6-94.8,40.8-8.4,7.2-14.4,16.8-21.6,25.2-6-9.6-13.2-18-21.6-25.2-25.2-26.4-58.8-40.8-94.8-40.8-68.4,0-124.8,57.6-124.8,126-1.2,139.19,111.6,235.19,223.19,310.79,9.6,7.2,24,7.2,33.6,0,111.6-75.6,224.39-171.59,223.19-310.79,0-68.4-55.2-124.8-124.8-126M262,453.69c-2.4,2.4-6,2.4-9.6,0C145.6,381.7,37.61,290.5,38.81,162.1c0-57.6,45.6-104.4,103.2-104.4,69.6,0,105.6,69.6,105.6,70.8,2.4,3.6,6,6,9.6,6h0c3.6,0,7.2-2.4,9.6-6,0,0,36-70.8,105.6-70.8,57.6,0,103.2,48,103.2,104.4,1.2,128.39-106.8,219.59-213.59,292.79"/>
</svg>