<?xml version="1.0" encoding="UTF-8"?>
<svg id="_레이어_1" data-name="레이어 1" xmlns="http://www.w3.org/2000/svg" viewBox="0 0 132.61 32">
  <defs>
    <style>
      .cls-1 {
        fill: #003087;
      }

      .cls-2 {
        fill: #009cde;
      }

      .cls-3 {
        fill: #012169;
      }
    </style>
  </defs>
  <g>
    <path class="cls-1" d="M44.57,5.09h-7.8c-.5,0-1,.4-1.1.9l-3.1,20c-.1.4.2.7.6.7h3.7c.5,0,1-.4,1.1-.9l.8-5.4c.1-.5.5-.9,1.1-.9h2.5c5.1,0,8.1-2.5,8.9-7.4.3-2.1,0-3.8-1-5-1.1-1.3-3.1-2-5.7-2ZM45.47,12.39c-.4,2.8-2.6,2.8-4.6,2.8h-1.2l.8-5.2c0-.3.3-.5.6-.5h.5c1.4,0,2.7,0,3.4.8.5.4.7,1.1.5,2.1Z"/>
    <path class="cls-1" d="M67.77,12.29h-3.7c-.3,0-.6.2-.6.5l-.2,1-.3-.4c-.8-1.2-2.6-1.6-4.4-1.6-4.1,0-7.6,3.1-8.3,7.5-.4,2.2.1,4.3,1.4,5.7,1.1,1.3,2.8,1.9,4.7,1.9,3.3,0,5.2-2.1,5.2-2.1l-.2,1c-.1.4.2.8.6.8h3.4c.5,0,1-.4,1.1-.9l2-12.8c.1-.2-.3-.6-.7-.6ZM62.67,19.49c-.4,2.1-2,3.6-4.2,3.6-1.1,0-1.9-.3-2.5-1s-.8-1.6-.6-2.6c.3-2.1,2.1-3.6,4.2-3.6,1.1,0,1.9.4,2.5,1,.5.7.7,1.6.6,2.6Z"/>
    <path class="cls-1" d="M87.67,12.29h-3.7c-.4,0-.7.2-.9.5l-5.2,7.6-2.2-7.3c-.1-.5-.6-.8-1-.8h-3.7c-.4,0-.8.4-.6.9l4.1,12.1-3.9,5.4c-.3.4,0,1,.5,1h3.7c.4,0,.7-.2.9-.5l12.5-18c.3-.3,0-.9-.5-.9Z"/>
    <path class="cls-2" d="M100.07,5.09h-7.8c-.5,0-1,.4-1.1.9l-3.1,19.9c-.1.4.2.7.6.7h4c.4,0,.7-.3.7-.6l.9-5.7c.1-.5.5-.9,1.1-.9h2.5c5.1,0,8.1-2.5,8.9-7.4.3-2.1,0-3.8-1-5-1.2-1.2-3.1-1.9-5.7-1.9ZM100.97,12.39c-.4,2.8-2.6,2.8-4.6,2.8h-1.2l.8-5.2c0-.3.3-.5.6-.5h.5c1.4,0,2.7,0,3.4.8.5.4.6,1.1.5,2.1Z"/>
    <path class="cls-2" d="M123.27,12.29h-3.7c-.3,0-.6.2-.6.5l-.2,1-.3-.4c-.8-1.2-2.6-1.6-4.4-1.6-4.1,0-7.6,3.1-8.3,7.5-.4,2.2.1,4.3,1.4,5.7,1.1,1.3,2.8,1.9,4.7,1.9,3.3,0,5.2-2.1,5.2-2.1l-.2,1c-.1.4.2.8.6.8h3.4c.5,0,1-.4,1.1-.9l2-12.8c0-.2-.3-.6-.7-.6ZM118.07,19.49c-.4,2.1-2,3.6-4.2,3.6-1.1,0-1.9-.3-2.5-1-.6-.7-.8-1.6-.6-2.6.3-2.1,2.1-3.6,4.2-3.6,1.1,0,1.9.4,2.5,1,.6.7.8,1.6.6,2.6Z"/>
    <path class="cls-2" d="M127.67,5.59l-3.2,20.3c-.1.4.2.7.6.7h3.2c.5,0,1-.4,1.1-.9l3.2-19.9c.1-.4-.2-.7-.6-.7h-3.6c-.4,0-.6.2-.7.5Z"/>
  </g>
  <g>
    <path class="cls-2" d="M21.6,7.92c.31-2.32,0-3.86-1.24-5.29-1.34-1.54-3.72-2.32-6.71-2.32H4.87c-.52,0-1.13.55-1.24,1.1L.02,25.89c0,.44.31.99.83.99h5.37l-.31,2.43c-.1.44.21.77.62.77h4.54c.52,0,1.03-.33,1.14-.88v-.33l.93-5.74v-.22c.1-.55.62-.99,1.14-.99h.62c4.44,0,7.85-1.87,8.88-7.39.52-2.32.31-4.19-.93-5.51-.31-.44-.83-.77-1.24-1.1h0"/>
    <path class="cls-3" d="M21.6,7.92c.31-2.32,0-3.86-1.24-5.29-1.34-1.54-3.72-2.32-6.71-2.32H4.87c-.52,0-1.13.55-1.24,1.1L.02,25.89c0,.44.31.99.83.99h5.37l1.45-9.15-.1.33c.1-.66.62-1.1,1.24-1.1h2.58c5.06,0,8.98-2.21,10.22-8.38-.1-.33,0-.44,0-.66"/>
    <path class="cls-1" d="M9,7.92c.1-.33.31-.66.62-.88.21,0,.31-.11.52-.11h6.81c.83,0,1.65.11,2.27.22.21,0,.41,0,.62.11.21.11.41.11.52.22h.31c.31.11.62.33.93.44.31-2.32,0-3.86-1.24-5.4-1.24-1.54-3.61-2.21-6.61-2.21H4.87c-.52,0-1.13.44-1.24,1.1L.02,25.89c0,.44.31.99.83.99h5.37l1.45-9.15,1.34-9.82Z"/>
  </g>
</svg>