<?xml version="1.0" encoding="UTF-8"?>
<svg id="_레이어_1" data-name="레이어 1" xmlns="http://www.w3.org/2000/svg" viewBox="0 0 512 512">
  <defs>
    <style>
      .cls-1 {
        fill: #3c3229;
      }
    </style>
  </defs>
  <path class="cls-1" d="M300.19,256L496.85,59.35c12.21-12.2,12.21-31.99,0-44.2-12.2-12.2-31.99-12.2-44.19,0l-196.65,196.65L59.35,15.15c-12.21-12.2-31.99-12.2-44.2,0-12.2,12.2-12.2,31.99,0,44.2l196.65,196.65L15.15,452.65c-12.2,12.2-12.2,31.99,0,44.19,6.1,6.1,14.1,9.15,22.1,9.15s16-3.05,22.1-9.15l196.65-196.65,196.65,196.65c6.1,6.1,14.1,9.15,22.1,9.15s16-3.05,22.1-9.15c12.21-12.2,12.21-31.99,0-44.19l-196.65-196.65Z"/>
</svg>