<?xml version="1.0" encoding="UTF-8"?>
<svg id="_레이어_1" data-name="레이어_1" xmlns="http://www.w3.org/2000/svg" viewBox="0 0 512 512">
  <defs>
    <style>
      .cls-1 {
        fill: #d1ccc6;
      }
    </style>
  </defs>
  <path class="cls-1" d="M256,256c-52.87,0-99.51-49.72-103.96-110.84-2.25-30.98,7.32-59.66,26.95-80.78,19.42-20.88,46.77-32.38,77-32.38s57.33,11.57,76.84,32.58c19.76,21.28,29.39,49.9,27.11,80.6h0c-4.53,61.11-51.17,110.82-103.96,110.82ZM256,64c-21.25,0-40.27,7.88-53.57,22.18-13.51,14.53-20.07,34.65-18.47,56.66,3.2,43.99,36.19,81.16,72.04,81.16s68.78-37.18,72.04-81.18h0c1.61-21.72-5.01-41.77-18.65-56.46-13.39-14.42-32.35-22.36-53.39-22.36ZM344,144h0,0Z"/>
  <path class="cls-1" d="M432,480H80c-9.61,0-18.2-3.95-24.2-11.13-6.5-7.78-9.12-18.39-7.18-29.11,8.44-46.81,34.79-86.15,76.19-113.75,36.77-24.51,83.36-38.01,131.19-38.01s94.42,13.5,131.19,38.01c41.4,27.6,67.75,66.93,76.2,113.75,1.93,10.72-.68,21.33-7.18,29.11-6,7.18-14.6,11.13-24.21,11.13ZM80.2,448h351.62c.16-.46.31-1.34.09-2.56-15.55-86.18-102.09-125.44-175.9-125.44s-160.35,39.25-175.89,125.44c-.22,1.22-.07,2.09.09,2.56ZM432.25,447.98h0Z"/>
</svg>