<?xml version="1.0" encoding="UTF-8"?>
<svg id="_레이어_1" data-name=" 레이어 1" xmlns="http://www.w3.org/2000/svg" viewBox="0 0 512 512">
  <defs>
    <style>
      .cls-1 {
        fill: #b8b1aa;
      }
    </style>
  </defs>
  <g id="_그룹_113" data-name=" 그룹 113">
    <path id="_패스_17" data-name=" 패스 17" class="cls-1" d="M171.05,417.73c-16.62,0-29.91,13.29-29.91,29.91s13.29,29.91,29.91,29.91,29.91-13.29,29.91-29.91h0c0-16.62-13.29-29.91-29.91-29.91"/>
    <path id="_패스_18" data-name=" 패스 18" class="cls-1" d="M440.22,417.73c-16.62,0-29.91,13.29-29.91,29.91s13.29,29.91,29.91,29.91,29.91-13.29,29.91-29.91h0c0-16.62-13.29-29.91-29.91-29.91"/>
    <path id="_패스_19" data-name=" 패스 19" class="cls-1" d="M490.07,92.06H113.45l-8.86-48.74c0-5.54-5.54-8.86-11.08-8.86H17.08c-5.54,0-11.08,4.43-11.08,11.08s4.43,11.08,11.08,11.08h67.57l56.49,317.91c0,5.54,5.54,8.86,11.08,8.86h306.83c5.54,0,11.08-4.43,11.08-11.08s-4.43-11.08-11.08-11.08H161.08l-9.97-55.39h300.19c9.97,0,17.72-6.65,19.94-16.62l34.34-172.8c2.22-11.08-4.43-22.15-15.51-24.37h0"/>
  </g>
</svg>