<?xml version="1.0" encoding="UTF-8"?>
<svg id="_레이어_1" data-name="레이어_1" xmlns="http://www.w3.org/2000/svg" viewBox="0 0 512 512">
  <defs>
    <style>
      .cls-1 {
        fill: #d1ccc6;
      }
    </style>
  </defs>
  <path class="cls-1" d="M332.64,64.58c-19.46-21.01-46.64-32.58-76.64-32.58s-57.43,11.5-76.8,32.38c-19.58,21.11-29.12,49.8-26.88,80.78,4.44,61.12,50.95,110.84,103.68,110.84s99.16-49.71,103.67-110.82c2.27-30.7-7.33-59.33-27.03-80.6Z"/>
  <path class="cls-1" d="M432,480H80c-9.33.12-18.22-3.97-24.2-11.13-6.5-7.77-9.12-18.38-7.18-29.11,8.44-46.82,34.78-86.15,76.18-113.76,36.78-24.51,83.37-38,131.2-38s94.42,13.5,131.2,38c41.4,27.6,67.74,66.93,76.18,113.75,1.94,10.73-.68,21.34-7.18,29.11-5.98,7.17-14.87,11.26-24.2,11.14Z"/>
</svg>