<?xml version="1.0" encoding="UTF-8"?>
<svg id="_레이어_1" data-name="레이어 1" xmlns="http://www.w3.org/2000/svg" viewBox="0 0 683 164">
  <defs>
    <style>
      .cls-1, .cls-2 {
        fill: #fff;
      }

      .cls-2 {
        fill-rule: evenodd;
      }
    </style>
  </defs>
  <path class="cls-2" d="M454.94,0c-13.77,0-24.93,11.16-24.93,24.93v113.37c0,13.77,11.16,24.93,24.93,24.93h203.13c13.77,0,24.93-11.16,24.93-24.93V24.93c0-13.77-11.16-24.93-24.93-24.93h-203.13ZM490.02,113.9v-28.74h18.08c16.52,0,25.3-9.26,25.3-23.29s-8.78-22.43-25.3-22.43h-29.72v74.46h11.65ZM490.02,50.51h15.4c10.69,0,15.94,4.39,15.94,11.74s-5.06,11.74-15.47,11.74h-15.88v-23.49ZM553.93,115.43c8.88,0,14.7-3.91,17.38-10.6.76,7.45,5.25,11.27,14.99,8.69l.09-7.92c-3.91.38-4.68-1.05-4.68-5.15v-19.48c0-11.46-7.54-18.23-21.48-18.23s-21.67,6.87-21.67,18.52h10.69c0-5.54,3.91-8.88,10.79-8.88,7.26,0,10.6,3.15,10.5,8.59v2.48l-12.32,1.34c-13.84,1.53-21.48,6.78-21.48,15.94,0,7.54,5.35,14.7,17.18,14.7ZM556.32,106.84c-6.01,0-8.4-3.25-8.4-6.49,0-4.39,4.96-6.4,14.7-7.54l7.64-.86c-.48,8.4-6.11,14.89-13.94,14.89ZM621.75,117.62c-4.87,11.84-12.7,15.37-24.92,15.37h-5.25v-9.74h5.63c6.68,0,9.93-2.1,13.46-8.12l-21.67-50.88h12.03l15.47,37.14,13.75-37.14h11.74l-20.24,53.37Z"/>
  <path class="cls-1" d="M57.39,71.74c-15.95-3.46-23.05-4.81-23.05-10.96,0-5.78,4.81-8.66,14.42-8.66,8.46,0,14.64,3.7,19.19,10.94.34.56,1.05.75,1.63.45l17.94-9.07c.64-.32.88-1.14.52-1.76-7.45-12.91-21.21-19.98-39.32-19.98-23.8,0-38.59,11.73-38.59,30.38,0,19.81,18.01,24.82,33.98,28.28,15.97,3.46,23.09,4.81,23.09,10.96s-5.19,9.05-15.56,9.05c-9.57,0-16.68-4.38-20.97-12.89-.32-.62-1.07-.88-1.7-.56l-17.9,8.87c-.62.32-.88,1.07-.56,1.72,7.1,14.29,21.68,22.32,41.15,22.32,24.79,0,39.77-11.54,39.77-30.77s-18.09-24.82-34.04-28.28v-.04Z"/>
  <path class="cls-1" d="M153.55,32.7c-10.17,0-19.17,3.61-25.63,10.03-.41.39-1.07.11-1.07-.45V1.27C126.85.56,126.29,0,125.58,0h-22.45c-.71,0-1.27.56-1.27,1.27v127.31c0,.71.56,1.27,1.27,1.27h22.45c.71,0,1.27-.56,1.27-1.27v-55.84c0-10.79,8.26-19.06,19.4-19.06s19.21,8.1,19.21,19.06v55.84c0,.71.56,1.27,1.27,1.27h22.45c.71,0,1.27-.56,1.27-1.27v-55.84c0-23.46-15.37-40.01-36.9-40.01v-.02Z"/>
  <path class="cls-1" d="M235.99,29.05c-12.19,0-23.61,3.74-31.81,9.13-.56.37-.75,1.12-.41,1.7l9.9,16.91c.36.6,1.14.82,1.74.45,6.23-3.76,13.35-5.72,20.63-5.67,19.6,0,34,13.84,34,32.12,0,15.58-11.53,27.12-26.14,27.12-11.91,0-20.18-6.94-20.18-16.74,0-5.61,2.38-10.21,8.58-13.45.64-.34.88-1.14.49-1.76l-9.34-15.81c-.3-.52-.94-.75-1.52-.54-12.51,4.64-21.29,15.81-21.29,30.81,0,22.69,18.05,39.62,43.23,39.62,29.41,0,50.55-20.39,50.55-49.64,0-31.35-24.6-54.25-58.42-54.25Z"/>
  <path class="cls-1" d="M360.07,32.53c-11.36,0-21.48,4.19-28.89,11.58-.41.41-1.07.11-1.07-.45v-8.9c0-.71-.56-1.27-1.27-1.27h-21.87c-.71,0-1.27.56-1.27,1.27v127.12c0,.71.56,1.27,1.27,1.27h22.45c.71,0,1.27-.56,1.27-1.27v-41.68c0-.56.67-.84,1.07-.47,7.38,6.88,17.15,10.89,28.33,10.89,26.34,0,46.88-21.34,46.88-49.05s-20.56-49.05-46.88-49.05l-.02.02ZM355.84,109.09c-14.98,0-26.33-11.93-26.33-27.7s11.33-27.7,26.33-27.7,26.32,11.73,26.32,27.7-11.16,27.7-26.34,27.7h.02Z"/>
</svg>