<?xml version="1.0" encoding="UTF-8"?>
<svg id="_레이어_1" xmlns="http://www.w3.org/2000/svg" viewBox="0 0 24 24">
  <defs>
    <style>
      .cls-1 {
        fill: #566538;
      }
    </style>
  </defs>
  <path class="cls-1" d="M17,2c2.76,0,4.99,2.24,5,5v10c0,2.76-2.24,4.99-5,5H7c-2.76,0-4.99-2.24-5-5V7c0-2.76,2.24-4.99,5-5h10M17,0H7C3.15,0,0,3.15,0,7v10c0,3.85,3.15,7,7,7h10c3.85,0,7-3.15,7-7V7c0-3.85-3.15-7-7-7Z"/>
  <path class="cls-1" d="M18.5,7c-.83,0-1.5-.67-1.5-1.5s.67-1.5,1.5-1.5,1.5.67,1.5,1.5-.67,1.5-1.49,1.5h-.01Z"/>
  <path class="cls-1" d="M12,8c2.21,0,4,1.79,4,4s-1.79,4-4,4-4-1.79-4-4,1.79-4,4-4M12,6c-3.31,0-6,2.69-6,6s2.69,6,6,6,6-2.69,6-6-2.69-6-6-6Z"/>
</svg>