<?xml version="1.0" encoding="UTF-8"?>
<svg id="_레이어_1" data-name="레이어_1" xmlns="http://www.w3.org/2000/svg" viewBox="0 0 93.7 44.87">
  <defs>
    <style>
      .cls-1 {
        fill: #26211b;
      }
    </style>
  </defs>
  <g id="Layer_2">
    <g id="Layer_1-2">
      <path class="cls-1" d="M93.65,10.53c-.16-.08-.46-.56-.58-.66v-.07l.06-.06.14-.06.13-.06s.2-.05.2-.09-.06,0-.06,0c-.03-.03-.06-.05-.1-.06h-.36s-1.37-.09-1.61-.15c-1.21-.14-2.38-.48-3.47-1.01l-1.58-.85-1.42-.75c-.31-.19-.65-.32-1-.39-.42-.11-.82-.28-1.19-.52-.36-.26-.69-.56-1-.88-.43-.38-.96-.61-1.52-.67-.55-.1-1.12-.07-1.66.1-.37.17-.67.46-.86.82-.03.07-.03.16,0,.23l-.49.33-.18.16s-.06.05-.07.09v.06l.32.12c.08.03.16.06.24.08.11.02.23.02.34,0h0l.12.44c-.02.3.01.6.08.89.14,1.03.66,1.97,1.45,2.64.31.27.64.5,1,.7.71.32,1.46.56,2.23.72h.19l-.12.05-.25.15-.23.1-.22.06h-.4s-.22-.1-.22-.1h-.37c.08.04.16.09.24.14-.11.04-.24.04-.35,0-.13-.05-.27-.05-.4,0-.4,0-.82-.08-1.27-.1-.94-.02-1.87.2-2.71.63-.75.4-1.45.86-2.11,1.4h-.33c-.76-.57-1.58-1.04-2.46-1.4-1.12-.45-2.31-.66-3.51-.63-1.44-.09-2.79.7-3.42,2l-.41-.07v-1.7h-6.75v1.21c1.94.4,2.91.97,2.91,1.7v19.93h3.84v-15.88c0-.73.04-1.46.11-2.19.06-.64.22-1.26.49-1.84.26-.53.65-.98,1.15-1.29,1.41-.71,3.09-.65,4.44.17.59.43,1.06,1,1.35,1.67.31.73.49,1.51.55,2.3.07.86.11,1.71.11,2.55v14.51h3.14v-17.14c0-.62.03-1.24.11-1.86.05-.51.21-1,.46-1.45.25-.41.62-.72,1.06-.9.64-.23,1.32-.33,2-.3.83-.04,1.66.19,2.35.66.58.43,1.03,1.01,1.31,1.67.31.73.49,1.51.55,2.3.07.86.11,1.71.11,2.55v14.47h3.65v-14.47c.01-1.27-.12-2.54-.4-3.78-.21-.97-.65-1.87-1.29-2.63-.49-.55-1.1-.99-1.78-1.29h.14l.53.05h.14v-.12s0-.24.38,0l.15.15c0-.2-.16-.37-.36-.39-.13-.02-.26,0-.36.08h-.55l-.21-.07v-.09s0-.18.15-.13l.23.1h0l-.17-.23.52-.48s1.5-.1,1.91-.77c.19,0,.38.02.57.07.23.08,1,.06,1.31.14.27.05.54.08.81.09,0,0,.28-.05,0-.23-.11-.12-.23-.23-.37-.31l-.75-.39.34-.05.68-.09c.45-.11.91-.11,1.36,0l.77.19s1,.13,1.59.27l.8.2s.1,0,.15,0v-.07c.03-.1-.02-.2-.11-.24M25.14,12.66h.05c2.59.04,3.89,2.65,3.89,7.82v.32l-.27.26h-7.35l-.27-.26c.03-5.42,1.35-8.13,3.94-8.14M33.29,22.24c0-7.02-2.59-10.53-7.77-10.53-2.98,0-5.16,1-6.55,3-1.39,2-2.08,4.98-2.07,8.95,0,3.61.67,6.37,2,8.27,1.33,1.9,3.47,2.86,6.41,2.89h.21c1.68.09,3.35-.25,4.85-1,1.2-.69,2.15-1.74,2.71-3l-1.07-.8c-1.42,2.29-2.97,3.47-4.64,3.54h-.11c-4.19,0-6.29-3.67-6.29-11l.27-.27,12.05-.05ZM54.35,13.79c-.35-.51-.81-.94-1.35-1.26-.48-.29-1.01-.49-1.56-.6-.47-.11-.96-.17-1.44-.18h-.16c-1.76-.06-3.4.89-4.22,2.44l-.51-.19v-1.84h-6.71v1.21c2,.4,3,.97,3,1.7v19.93h3.76v-13.46c-.03-1.42.08-2.85.33-4.25.15-.88.45-1.74.88-2.52.28-.53.72-.95,1.26-1.21.47-.2.97-.3,1.48-.3.53,0,1.05.12,1.54.33l.11.17v.45c0,.35-.25.91-.25,1.54-.03.55.14,1.09.49,1.52.37.41.9.63,1.45.61.65.01,1.27-.25,1.72-.72.46-.48.71-1.12.72-1.78-.07-.58-.26-1.14-.57-1.64l.03.05ZM3.07,8.35v3.46l-.27.27H0v1.26c2.05.4,3.07.84,3.07,1.32v20.34h3.84V14.69c0-.47,1.15-.91,3.46-1.32v-1.27h-3.19l-.27-.27v-1.7c.06-5.83,1.87-8.8,5.43-8.91V0C6.16,0,3.07,2.78,3.07,8.35"/>
      <polygon class="cls-1" points="17.11 41.13 17.6 41.13 17.6 44.43 19.18 44.43 19.18 44.83 17.11 44.83 17.11 41.13"/>
      <rect class="cls-1" x="27.92" y="41.13" width=".48" height="3.69"/>
      <path class="cls-1" d="M38.27,44.83l-1.21-3.69h.52l.57,1.86c.15.5.29,1,.39,1.38h0c.1-.43.25-.89.42-1.38l.63-1.82h.51l-1.32,3.69-.51-.04Z"/>
      <rect class="cls-1" x="48.73" y="41.13" width=".48" height="3.69"/>
      <path class="cls-1" d="M58.26,44.83v-3.7h.53l1.21,1.87c.25.38.47.79.66,1.2h0c0-.49-.05-.94-.05-1.51v-1.56h.39v3.69h-.48l-1.14-1.82c-.25-.39-.48-.81-.68-1.23h0v3.1l-.44-.04Z"/>
      <path class="cls-1" d="M72.91,44.66c-.37.13-.75.2-1.14.2-.95.1-1.8-.59-1.9-1.55-.01-.1-.01-.21,0-.31-.04-1.02.76-1.88,1.78-1.92.07,0,.15,0,.22,0,.32,0,.64.05.93.17l-.12.39c-.26-.12-.54-.17-.82-.16-.76-.06-1.42.51-1.48,1.27,0,.08,0,.16,0,.24-.08.74.46,1.41,1.2,1.48.07,0,.15,0,.22,0,.22.01.44-.02.64-.1v-1.1h-.75v-.38h1.22v1.75Z"/>
    </g>
  </g>
</svg>