<svg xmlns="http://www.w3.org/2000/svg" viewBox="0 0 93.77 44.87"><title>Logo</title><g id="Layer_2" data-name="Layer 2"><g id="Layer_1-2" data-name="Layer 1"><path d="M93.65,10.53c-.16-.08-.46-.56-.58-.66V9.8l.06-.06.14-.06.13-.06s.2-.05.2-.09-.06,0-.06,0a.25.25,0,0,0-.1-.06h-.12l-.24,0s-1.37-.09-1.61-.15A10.63,10.63,0,0,1,88,8.31l-1.58-.85L85,6.71A3.13,3.13,0,0,0,84,6.32a4,4,0,0,1-1.19-.52,7.18,7.18,0,0,1-1-.88,2.74,2.74,0,0,0-1.52-.67,3.53,3.53,0,0,0-1.66.1,1.87,1.87,0,0,0-.86.82.29.29,0,0,0,0,.23l-.49.33-.18.16a.16.16,0,0,0-.07.09s0,.06,0,.06l.32.12a1.48,1.48,0,0,0,.24.08,1.14,1.14,0,0,0,.34,0v0l.12.44a3.18,3.18,0,0,0,.08.89,4.18,4.18,0,0,0,1.45,2.64,5.82,5.82,0,0,0,1,.7,10.63,10.63,0,0,0,2.23.72H83l-.12.05-.25.15-.23.1-.22.06h-.21L81.78,12l-.22-.11s-.3,0-.37,0a1.53,1.53,0,0,1,.24.14.57.57,0,0,1-.35,0,.53.53,0,0,0-.4,0c-.4,0-.82-.08-1.27-.1a5.62,5.62,0,0,0-2.71.63,12.78,12.78,0,0,0-2.11,1.4h-.33a11.11,11.11,0,0,0-2.46-1.4,8.87,8.87,0,0,0-3.51-.63,3.54,3.54,0,0,0-3.42,2l-.41-.07v-1.7H57.71v1.21q2.91.6,2.91,1.7V35h3.84V19.12a21,21,0,0,1,.11-2.19,5.58,5.58,0,0,1,.49-1.84,3.14,3.14,0,0,1,1.15-1.29,4.59,4.59,0,0,1,4.44.17A4.06,4.06,0,0,1,72,15.64a7.32,7.32,0,0,1,.55,2.3q.11,1.29.11,2.55V35H75.8V17.86A14.72,14.72,0,0,1,75.91,16a3.75,3.75,0,0,1,.46-1.45,2.2,2.2,0,0,1,1.06-.9,5.16,5.16,0,0,1,2-.3,3.82,3.82,0,0,1,2.35.66,4.08,4.08,0,0,1,1.31,1.67,7.3,7.3,0,0,1,.55,2.3q.11,1.29.11,2.55V35H87.4V20.53A16.43,16.43,0,0,0,87,16.75a6.16,6.16,0,0,0-1.29-2.63,5.13,5.13,0,0,0-1.78-1.29l.14,0,.53.05.14,0v-.12s0-.24.38,0l.15.15a.41.41,0,0,0-.36-.39.46.46,0,0,0-.36.08l-.11,0-.2,0-.24,0-.21-.07,0-.09s0-.18.15-.13l.23.1,0,0L84,12.18l.52-.48s1.5-.1,1.91-.77A1.94,1.94,0,0,1,87,11c.23.08,1,.06,1.31.14a6.31,6.31,0,0,0,.81.09s.28-.05,0-.23a1.62,1.62,0,0,0-.37-.31L88,10.3l.34-.05.68-.09a2.78,2.78,0,0,1,1.36,0l.77.19s1,.13,1.59.27l.8.2a.65.65,0,0,0,.15,0l0-.07a.2.2,0,0,0-.11-.24M25.14,12.66h.05q3.89.06,3.89,7.82v.32l-.27.26H21.46l-.27-.26q.05-8.13,3.94-8.14m8.16,9.58q0-10.53-7.77-10.53-4.47,0-6.55,3T16.9,23.66q0,5.42,2,8.27t6.41,2.89h.21a9.71,9.71,0,0,0,4.85-1,6.48,6.48,0,0,0,2.71-3l-1.07-.8q-2.13,3.44-4.64,3.54h-.11q-6.29,0-6.29-11l.27-.27Zm21.06-8.45A4.32,4.32,0,0,0,53,12.53a4.9,4.9,0,0,0-1.56-.6A7.63,7.63,0,0,0,50,11.75h-.16a4.6,4.6,0,0,0-4.22,2.44L45.11,14V12.16H38.4v1.21q3,.6,3,1.7V35h3.76V21.54a22.11,22.11,0,0,1,.33-4.25,8,8,0,0,1,.88-2.52,2.84,2.84,0,0,1,1.26-1.21,3.77,3.77,0,0,1,1.48-.3,3.88,3.88,0,0,1,1.54.33l.11.17v.45c0,.35-.25.91-.25,1.54A2.18,2.18,0,0,0,51,17.27a1.86,1.86,0,0,0,1.45.61,2.29,2.29,0,0,0,1.72-.72,2.61,2.61,0,0,0,.72-1.78,4,4,0,0,0-.57-1.64ZM3.07,8.35v3.46l-.27.27H0v1.26q3.07.6,3.07,1.32V35H6.91V14.69q0-.71,3.46-1.32V12.1H7.18l-.27-.27v-1.7Q7,1.39,12.34,1.22V0Q3.07,0,3.07,8.35"></path><polygon points="17.11 41.13 17.6 41.13 17.6 44.43 19.18 44.43 19.18 44.83 17.11 44.83 17.11 41.13"></polygon><rect x="27.92" y="41.13" width="0.48" height="3.69"></rect><path d="M38.27,44.83l-1.21-3.69h.52L38.15,43c.15.5.29,1,.39,1.38h0c.1-.43.25-.89.42-1.38l.63-1.82h.51l-1.32,3.69Z"></path><rect x="48.73" y="41.13" width="0.48" height="3.69"></rect><path d="M58.26,44.83V41.13h.53L60,43a9.88,9.88,0,0,1,.66,1.2h0c0-.49-.05-.94-.05-1.51V41.13H61v3.69h-.48L59.38,43a10.6,10.6,0,0,1-.68-1.23h0c0,.47,0,.91,0,1.52v1.58Z"></path><path d="M72.91,44.66a3.34,3.34,0,0,1-1.14.2A1.73,1.73,0,0,1,69.87,43a1.85,1.85,0,0,1,2-1.91,2.31,2.31,0,0,1,.93.17l-.12.39a1.83,1.83,0,0,0-.82-.16A1.38,1.38,0,0,0,70.38,43a1.35,1.35,0,0,0,1.42,1.49,1.58,1.58,0,0,0,.64-.1v-1.1h-.75v-.38h1.22Z"></path></g></g></svg>