<?xml version="1.0" encoding="UTF-8"?>
<svg id="Layer_1" xmlns="http://www.w3.org/2000/svg" viewBox="0 0 24 24">
  <defs>
    <style>
      .cls-1 {
        fill: #e60023;
      }
    </style>
  </defs>
  <path class="cls-1" d="M19.35,2.47C17.74.86,15.33.06,12.92.06,9.03.06,6.76,1.67,5.42,3.01c-1.61,1.61-2.54,3.75-2.54,5.89s1.07,4.69,2.95,5.49h.4c.4,0,.67-.27.8-.67,0-.27.27-.8.27-1.07.13-.54,0-.8-.27-1.07-.54-.67-.8-1.34-.8-2.41,0-2.95,2.14-6.03,6.3-6.03s5.22,1.88,5.22,4.82-.4,3.62-1.07,4.82c-.54.94-1.34,1.88-2.81,1.88s-1.07-.27-1.47-.67c-.27-.4-.4-.94-.27-1.47.13-.67.4-1.21.54-1.88.4-1.07.67-2.14.67-3.08,0-1.47-.94-2.41-2.14-2.41s-2.95,1.74-2.95,3.88.27,1.88.4,2.14c-.27.94-1.47,6.16-1.74,7.23-.13.54-.94,5.22.4,5.63,1.61.4,2.95-4.15,3.08-4.55,0-.4.54-2.01.8-2.95.8.67,2.01,1.21,3.08,1.21,2.14,0,4.15-.94,5.63-2.81,1.34-1.74,2.14-4.15,2.14-6.83s-.94-4.15-2.41-5.63h-.27Z"/>
</svg>