<?xml version="1.0" encoding="UTF-8"?>
<svg id="_레이어_1" data-name="레이어 1" xmlns="http://www.w3.org/2000/svg" viewBox="0 0 24 24.01">
  <defs>
    <style>
      .cls-1 {
        fill: #b8b1aa;
      }
    </style>
  </defs>
  <path class="cls-1" d="M12,0C5.37,0,0,5.37,0,12c0,4.91,2.96,9.14,7.19,11-.03-.84,0-1.84.21-2.75.23-.98,1.54-6.54,1.54-6.54,0,0-.39-.77-.39-1.9,0-1.78,1.03-3.11,2.31-3.11,1.09,0,1.62.82,1.62,1.8,0,1.1-.7,2.74-1.06,4.26-.3,1.28.64,2.31,1.9,2.31,2.27,0,3.8-2.92,3.8-6.38,0-2.63-1.77-4.6-4.99-4.6-3.64,0-5.91,2.72-5.91,5.75,0,1.04.31,1.78.79,2.35.22.26.25.37.17.67-.06.22-.19.75-.25.96-.08.31-.33.41-.6.3-1.68-.69-2.46-2.52-2.46-4.59,0-3.41,2.88-7.5,8.58-7.5,4.58,0,7.6,3.32,7.6,6.87,0,4.71-2.62,8.23-6.48,8.23-1.3,0-2.51-.7-2.93-1.49,0,0-.7,2.76-.85,3.3-.25.93-.75,1.85-1.21,2.57,1.1.33,2.25.49,3.4.49,6.63,0,12-5.37,12-12S18.63,0,12,0Z"/>
</svg>