<?xml version="1.0" encoding="UTF-8"?>
<svg id="Layer_1" data-name="Layer 1" xmlns="http://www.w3.org/2000/svg" viewBox="0 0 24 24">
  <defs>
    <style>
      .cls-1 {
        fill: #706356;
      }
    </style>
  </defs>
  <path class="cls-1" d="M17.75,4.01c-1.34-1.34-3.35-2.01-5.36-2.01-3.24,0-5.13,1.34-6.25,2.46-1.34,1.34-2.12,3.13-2.12,4.91s.89,3.91,2.46,4.58h.33c.33,0,.56-.22.67-.56,0-.22.22-.67.22-.89.11-.45,0-.67-.22-.89-.45-.56-.67-1.12-.67-2.01,0-2.46,1.79-5.02,5.25-5.02s4.35,1.56,4.35,4.02-.33,3.01-.89,4.02c-.45.78-1.12,1.56-2.34,1.56s-.89-.22-1.23-.56c-.22-.33-.33-.78-.22-1.23.11-.56.33-1,.45-1.56.33-.89.56-1.79.56-2.57,0-1.23-.78-2.01-1.79-2.01s-2.46,1.45-2.46,3.24.22,1.56.33,1.79c-.22.78-1.23,5.13-1.45,6.03-.11.45-.78,4.35.33,4.69,1.34.33,2.46-3.46,2.57-3.79,0-.33.45-1.67.67-2.46.67.56,1.67,1,2.57,1,1.79,0,3.46-.78,4.69-2.34,1.12-1.45,1.79-3.46,1.79-5.69s-.78-3.46-2.01-4.69h-.22Z"/>
</svg>