<?xml version="1.0" encoding="UTF-8"?>
<svg id="_레이어_1" data-name="레이어_1" xmlns="http://www.w3.org/2000/svg" viewBox="0 0 512 512">
  <defs>
    <style>
      .cls-1 {
        fill: #f5f4ee;
      }
    </style>
  </defs>
  <path class="cls-1" d="M177.8,77.61c-62.84,17.02-112.9,54.65-144.69,108.67-53.4,90.66-39.12,203.19,30.3,238.83,22.73,11.67,49.18,15.65,73.65,10.93,23.85-4.6,42.23-14.41,59.49-31.79,10.68-10.56,12.79-13.54,18.26-24.96,3.48-7.08,7.2-16.27,8.32-20.37,2.73-9.81,3.85-36.39,1.99-46.82-7.58-43.47-39.74-78.74-81.6-89.55l-10.56-2.73.75-5.59c1.24-8.32,7.7-26.95,12.05-34.78,13.66-24.22,34.4-43.34,60.36-55.76,4.97-2.36,8.94-4.97,8.94-5.59,0-.75-4.47-10.93-9.81-22.48-7.2-15.4-10.43-21.24-12.17-21.36-1.24-.12-8.07,1.37-15.28,3.35Z"/>
  <path class="cls-1" d="M461.59,78.24c-18.26,5.09-30.06,9.69-46.08,17.76-60.61,30.43-104.57,85.57-121.46,152.14-5.22,20.12-6.96,34.03-6.96,54.52,0,27.08,4.72,49.93,14.28,70.42,16.27,34.03,43.34,55.76,78.99,62.97,13.79,2.73,38.63,1.86,52.04-1.99,13.29-3.73,30.3-12.3,40.86-20.49,54.03-42.35,52.29-127.92-3.73-171.39-12.92-10.06-31.67-18.75-45.58-21.11-5.84-.99-5.84-.75-1.37-17.76,8.82-33.53,37.26-65.7,71.04-80.36,4.6-2.11,8.2-4.22,7.82-4.97-.25-.75-4.84-10.93-10.18-22.73-8.07-17.39-10.31-21.36-12.3-21.24-1.37,0-9.19,1.86-17.39,4.22Z"/>
</svg>