<?xml version="1.0" encoding="UTF-8"?>
<svg id="icons" xmlns="http://www.w3.org/2000/svg" viewBox="0 0 24 27.69">
  <defs>
    <style>
      .cls-1 {
        fill: #b8b1aa;
      }
    </style>
  </defs>
  <path class="cls-1" d="M21.01,5.92c-.19-.1-.37-.2-.55-.32-.51-.34-.98-.74-1.4-1.19-1.04-1.19-1.43-2.41-1.58-3.26h0c-.12-.7-.07-1.16-.06-1.16h-4.76v18.39c0,.25,0,.49-.01.73,0,.03,0,.06,0,.09,0,.01,0,.03,0,.04h0c-.1,1.35-.86,2.55-2.03,3.22-.6.34-1.28.52-1.97.52-2.22,0-4.01-1.81-4.01-4.04s1.8-4.04,4.01-4.04c.42,0,.84.07,1.24.2v-4.84c-2.44-.32-4.91.41-6.8,1.99-.82.71-1.51,1.56-2.04,2.51-.2.35-.96,1.74-1.05,3.99-.06,1.28.33,2.61.51,3.16h0c.12.33.56,1.44,1.29,2.37.59.75,1.28,1.4,2.06,1.94h0s.01,0,.01,0c2.3,1.56,4.85,1.46,4.85,1.46.44-.02,1.92,0,3.6-.8,1.86-.88,2.93-2.2,2.93-2.2.68-.79,1.22-1.68,1.59-2.65.43-1.13.57-2.49.57-3.03v-9.76c.06.03.83.54.83.54,0,0,1.11.71,2.83,1.17,1.24.33,2.91.4,2.91.4v-4.72c-.58.06-1.77-.12-2.99-.73Z"/>
</svg>