<?xml version="1.0" encoding="UTF-8"?>
<svg id="_레이어_1" data-name="레이어 1" xmlns="http://www.w3.org/2000/svg" viewBox="0 0 24 18">
  <defs>
    <style>
      .cls-1 {
        fill: #b8b1aa;
      }
    </style>
  </defs>
  <path class="cls-1" d="M23.85,3.98c0-2.11-1.55-3.81-3.47-3.81-2.6-.12-5.25-.17-7.95-.17h-.84c-2.7,0-5.35.05-7.95.17C1.72.17.16,1.88.16,3.98.05,5.65,0,7.32,0,8.99c0,1.67.05,3.34.16,5.01,0,2.11,1.55,3.82,3.46,3.82,2.73.13,5.53.18,8.37.18,2.85,0,5.64-.05,8.37-.18,1.92,0,3.47-1.71,3.47-3.82.11-1.67.16-3.34.16-5.02.01-1.67-.04-3.34-.15-5.01ZM9.7,13.59V4.38l6.8,4.6-6.8,4.61Z"/>
</svg>